<?xml version="1.0" encoding="utf-8"?>
<svg version="1.1" xmlns:xlink="http://www.w3.org/1999/xlink" width="120px" height="120px" xmlns="http://www.w3.org/2000/svg">
  <g>
    <path d="M 93.515625 68.515625  C 94.5052083333333 67.5260416666667  95 66.3541666666667  95 65  L 95 55  C 95 53.6458333333333  94.5052083333333 52.4739583333333  93.515625 51.484375  C 92.5260416666667 50.4947916666667  91.3541666666667 50  90 50  L 70 50  L 70 30  C 70 28.6458333333333  69.5052083333333 27.4739583333333  68.515625 26.484375  C 67.5260416666667 25.4947916666667  66.3541666666667 25  65 25  L 55 25  C 53.6458333333333 25  52.4739583333333 25.4947916666667  51.484375 26.484375  C 50.4947916666667 27.4739583333333  50 28.6458333333333  50 30  L 50 50  L 30 50  C 28.6458333333333 50  27.4739583333333 50.4947916666667  26.484375 51.484375  C 25.4947916666667 52.4739583333333  25 53.6458333333333  25 55  L 25 65  C 25 66.3541666666667  25.4947916666667 67.5260416666667  26.484375 68.515625  C 27.4739583333333 69.5052083333333  28.6458333333333 70  30 70  L 50 70  L 50 90  C 50 91.3541666666667  50.4947916666667 92.5260416666667  51.484375 93.515625  C 52.4739583333333 94.5052083333333  53.6458333333333 95  55 95  L 65 95  C 66.3541666666667 95  67.5260416666667 94.5052083333333  68.515625 93.515625  C 69.5052083333333 92.5260416666667  70 91.3541666666667  70 90  L 70 70  L 90 70  C 91.3541666666667 70  92.5260416666667 69.5052083333333  93.515625 68.515625  Z M 111.953125 29.8828125  C 117.317708333333 39.0755208333333  120 49.1145833333333  120 60  C 120 70.8854166666667  117.317708333333 80.9244791666667  111.953125 90.1171875  C 106.588541666667 99.3098958333333  99.3098958333333 106.588541666667  90.1171875 111.953125  C 80.9244791666667 117.317708333333  70.8854166666667 120  60 120  C 49.1145833333333 120  39.0755208333333 117.317708333333  29.8828125 111.953125  C 20.6901041666667 106.588541666667  13.4114583333333 99.3098958333333  8.046875 90.1171875  C 2.68229166666667 80.9244791666667  0 70.8854166666667  0 60  C 0 49.1145833333333  2.68229166666667 39.0755208333333  8.046875 29.8828125  C 13.4114583333333 20.6901041666667  20.6901041666667 13.4114583333333  29.8828125 8.046875  C 39.0755208333333 2.68229166666666  49.1145833333333 0  60 0  C 70.8854166666667 0  80.9244791666667 2.68229166666666  90.1171875 8.046875  C 99.3098958333333 13.4114583333333  106.588541666667 20.6901041666667  111.953125 29.8828125  Z " fill-rule="nonzero" fill="#00bfbf" stroke="none" />
  </g>
</svg>