<?xml version="1.0" encoding="utf-8"?>
<svg version="1.1" xmlns:xlink="http://www.w3.org/1999/xlink" width="12px" height="12px" viewBox="50 53.5  12 12" xmlns="http://www.w3.org/2000/svg">
  <path d="M 56 53.5  C 59.36 53.5  62 56.14  62 59.5  C 62 62.86  59.36 65.5  56 65.5  C 52.64 65.5  50 62.86  50 59.5  C 50 56.14  52.64 53.5  56 53.5  Z " fill-rule="nonzero" fill="#ffffff" stroke="none" />
  <path d="M 56 54  C 59.08 54  61.5 56.42  61.5 59.5  C 61.5 62.58  59.08 65  56 65  C 52.92 65  50.5 62.58  50.5 59.5  C 50.5 56.42  52.92 54  56 54  Z " stroke-width="1" stroke="#797979" fill="none" />
  <path d="M 56 62.5  C 54.32 62.5  53 61.18  53 59.5  C 53 57.82  54.32 56.5  56 56.5  C 57.68 56.5  59 57.82  59 59.5  C 59 61.18  57.68 62.5  56 62.5  " fill-rule="nonzero" fill="#797979" stroke="none" />
</svg>