<?xml version="1.0" encoding="utf-8"?>
<svg version="1.1" xmlns:xlink="http://www.w3.org/1999/xlink" width="26px" height="31px" xmlns="http://www.w3.org/2000/svg">
  <g transform="matrix(1 0 0 1 -106 -132 )">
    <path d="M 10.0269886363636 26.7718098958333  C 10.0762310606061 27.3974609375  10.1500946969697 27.8448350694444  10.2485795454545 28.1139322916667  C 11.1595643939394 28.5444878472222  12.0213068181818 28.759765625  12.8338068181818 28.759765625  C 17.4625946969697 28.759765625  19.7769886363636 26.5060763888889  19.7769886363636 21.9986979166667  C 19.7769886363636 20.46484375  19.5246212121212 19.25390625  19.0198863636364 18.3658854166667  C 18.6875 17.7738715277778  18.3089488636364 17.2760416666667  17.8842329545455 16.8723958333333  C 17.4595170454545 16.46875  17.0440340909091 16.1559244791667  16.6377840909091 15.9339192708333  C 16.2315340909091 15.7119140625  15.7360321969697 15.5437282986111  15.1512784090909 15.4293619791667  C 14.5665246212121 15.3149956597222  14.0494791666667 15.2443576388889  13.6001420454545 15.2174479166667  C 13.1508049242424 15.1905381944444  12.5691287878788 15.1770833333333  11.8551136363636 15.1770833333333  C 10.9564393939394 15.1770833333333  10.3347537878788 15.2443576388889  9.99005681818182 15.37890625  C 9.99005681818182 16.0920138888889  9.98697916666667 17.1616753472222  9.98082386363636 18.587890625  C 9.97466856060606 20.0141059027778  9.97159090909091 21.0770399305556  9.97159090909091 21.7766927083333  C 9.97159090909091 21.8843315972222  9.96543560606061 22.3384331597222  9.953125 23.1389973958333  C 9.94081439393939 23.9395616319444  9.93773674242424 24.5887586805556  9.94389204545455 25.0865885416667  C 9.95004734848485 25.5844184027778  9.97774621212121 26.1461588541667  10.0269886363636 26.7718098958333  Z M 9.97159090909091 11.6653645833333  C 9.97159090909091 12.2842881944444  9.97774621212121 12.7484809027778  9.99005681818182 13.0579427083333  C 10.5071022727273 13.1521267361111  11.1780303030303 13.19921875  12.0028409090909 13.19921875  C 13.0123106060606 13.19921875  13.8925189393939 13.1117621527778  14.6434659090909 12.9368489583333  C 15.3944128787879 12.7619357638889  16.0714962121212 12.4625651041667  16.6747159090909 12.0387369791667  C 17.2779356060606 11.6149088541667  17.7365056818182 11.0128038194444  18.0504261363636 10.232421875  C 18.3643465909091 9.45203993055555  18.5213068181818 8.49674479166667  18.5213068181818 7.36653645833333  C 18.5213068181818 6.42469618055555  18.342803030303 5.6005859375  17.9857954545455 4.89420572916667  C 17.6287878787879 4.18782552083333  17.1425189393939 3.63617621527777  16.5269886363636 3.2392578125  C 15.9114583333333 2.84233940972222  15.2466856060606 2.54969618055555  14.5326704545455 2.361328125  C 13.8186553030303 2.17296006944444  13.0553977272727 2.07877604166667  12.2428977272727 2.07877604166667  C 11.6273674242424 2.07877604166667  10.827178030303 2.16623263888889  9.84232954545455 2.34114583333333  C 9.84232954545455 3.01388888888889  9.86695075757576 4.02973090277777  9.91619318181818 5.388671875  C 9.96543560606061 6.74761284722222  9.99005681818182 7.77018229166667  9.99005681818182 8.45638020833333  C 9.99005681818182 8.81966145833333  9.98697916666667 9.35785590277777  9.98082386363636 10.0709635416667  C 9.97466856060606 10.7840711805556  9.97159090909091 11.3155381944444  9.97159090909091 11.6653645833333  Z M 4.265625 30.7578125  C 1.79119318181818 30.9058159722222  0.369318181818182 30.9865451388889  0 31  L 0.0369318181818182 29.1028645833333  C 0.221590909090909 29.0490451388889  0.744791666666667 28.94140625  1.60653409090909 28.7799479166667  C 2.46827651515152 28.6184895833333  3.12073863636364 28.4368489583333  3.56392045454546 28.2350260416667  C 3.6500946969697 28.0735677083333  3.72703598484848 27.8919270833333  3.79474431818182 27.6901041666667  C 3.86245265151515 27.48828125  3.91477272727273 27.2629123263889  3.95170454545455 27.0139973958333  C 3.98863636363636 26.7650824652778  4.02249053030303 26.5464409722222  4.05326704545455 26.3580729166667  C 4.08404356060606 26.1697048611111  4.10250946969697 25.9174262152778  4.10866477272727 25.6012369791667  C 4.11482007575758 25.2850477430556  4.11789772727273 25.0563151041667  4.11789772727273 24.9150390625  L 4.11789772727273 24.1985677083333  L 4.11789772727273 23.5930989583333  C 4.11789772727273 10.3804253472222  3.98248106060606 3.48480902777777  3.71164772727273 2.90625  C 3.6624053030303 2.79861111111111  3.52698863636364 2.70106336805555  3.30539772727273 2.61360677083333  C 3.08380681818182 2.52615017361111  2.80989583333333 2.4521484375  2.48366477272727 2.3916015625  C 2.15743371212121 2.3310546875  1.85274621212121 2.28396267361111  1.56960227272727 2.25032552083333  C 1.28645833333333 2.21668836805555  0.987926136363636 2.18641493055555  0.674005681818182 2.15950520833333  C 0.360085227272727 2.13259548611111  0.172348484848485 2.11241319444444  0.110795454545455 2.09895833333333  L 0.0369318181818182 0.423828125  C 1.24337121212121 0.396918402777774  3.33617424242424 0.319552951388889  6.31534090909091 0.191731770833334  C 9.29450757575758 0.0639105902777736  11.5904356060606 0  13.203125 0  C 13.4862689393939 0  13.9048295454545 0.00336371527777357  14.4588068181818 0.0100911458333345  C 15.0127840909091 0.0168185763888885  15.4313446969697 0.0201822916666655  15.7144886363636 0.0201822916666655  C 16.5762310606061 0.0201822916666655  17.4164299242424 0.107638888888889  18.2350852272727 0.282552083333334  C 19.053740530303 0.457465277777774  19.844696969697 0.740017361111108  20.6079545454545 1.13020833333333  C 21.3712121212121 1.52039930555555  22.0359848484849 1.998046875  22.6022727272727 2.56315104166667  C 23.1685606060606 3.12825520833333  23.624053030303 3.83127170138889  23.96875 4.67220052083333  C 24.313446969697 5.51312934027777  24.4857954545455 6.43815104166667  24.4857954545455 7.447265625  C 24.4857954545455 8.14691840277777  24.3842329545455 8.78938802083333  24.1811079545455 9.37467447916667  C 23.9779829545455 9.9599609375  23.7379261363636 10.4443359375  23.4609375 10.8277994791667  C 23.1839488636364 11.2112630208333  22.7869318181818 11.5980902777778  22.2698863636364 11.98828125  C 21.7528409090909 12.3784722222222  21.3035037878788 12.6812065972222  20.921875 12.896484375  C 20.5402462121212 13.1117621527778  20.0232007575758 13.380859375  19.3707386363636 13.7037760416667  C 21.266571969697 14.1746961805556  22.8454071969697 15.076171875  24.1072443181818 16.408203125  C 25.3690814393939 17.740234375  26 19.4086371527778  26 21.4134114583333  C 26 22.7588975694444  25.7845643939394 23.9664713541667  25.3536931818182 25.0361328125  C 24.922821969697 26.1057942708333  24.3473011363636 26.9837239583333  23.6271306818182 27.669921875  C 22.9069602272727 28.3561197916667  22.0575284090909 28.9313151041667  21.0788352272727 29.3955078125  C 20.1001420454545 29.8597005208333  19.09375 30.1859809027778  18.0596590909091 30.3743489583333  C 17.0255681818182 30.5627170138889  15.9422348484849 30.6569010416667  14.8096590909091 30.6569010416667  C 14.2679924242424 30.6569010416667  13.4554924242424 30.63671875  12.3721590909091 30.5963541666667  C 11.2888257575758 30.5559895833333  10.4763257575758 30.5358072916667  9.93465909090909 30.5358072916667  C 8.62973484848485 30.5358072916667  6.74005681818182 30.6098090277778  4.265625 30.7578125  Z " fill-rule="nonzero" fill="#000000" stroke="none" transform="matrix(1 0 0 1 106 132 )" />
  </g>
</svg>