<?xml version="1.0" encoding="utf-8"?>
<svg version="1.1" xmlns:xlink="http://www.w3.org/1999/xlink" width="24px" height="29px" xmlns="http://www.w3.org/2000/svg">
  <g transform="matrix(1 0 0 1 -143 -134 )">
    <path d="M 2.8359375 28.7545572916667  C 1.3984375 28.8678385416667  0.453125 28.9370659722222  0 28.9622395833333  L 0.3984375 27.357421875  C 0.7421875 27.2693142361111  1.22265625 27.1654730902778  1.83984375 27.0458984375  C 2.45703125 26.9263237847222  3.01953125 26.8067491319444  3.52734375 26.6871744791667  C 4.03515625 26.5675998263889  4.5 26.4197048611111  4.921875 26.2434895833333  C 5.359375 25.8029513888889  5.6796875 25.1673177083333  5.8828125 24.3365885416667  C 5.8984375 24.2484809027778  6.3828125 22.4296875  7.3359375 18.8802083333333  C 8.2890625 15.3307291666667  9.1796875 11.9102647569444  10.0078125 8.61881510416667  C 10.8359375 5.32736545138888  11.2421875 3.46137152777778  11.2265625 3.02083333333333  L 11.2265625 2.548828125  C 10.8515625 2.38519965277778  10.42578125 2.26877170138888  9.94921875 2.19954427083333  C 9.47265625 2.13031684027778  8.9296875 2.07996961805555  8.3203125 2.04850260416667  C 7.7109375 2.01703559027778  7.2578125 1.982421875  6.9609375 1.94466145833333  L 7.40625 0  C 7.921875 0.0251736111111086  8.859375 0.0660807291666677  10.21875 0.122721354166668  C 11.578125 0.179361979166668  12.74609375 0.223415798611109  13.72265625 0.2548828125  C 14.69921875 0.286349826388885  15.640625 0.302083333333332  16.546875 0.302083333333332  C 17.296875 0.302083333333332  18.06640625 0.286349826388885  18.85546875 0.2548828125  C 19.64453125 0.223415798611109  20.58984375 0.179361979166668  21.69140625 0.122721354166668  C 22.79296875 0.0660807291666677  23.5625 0.0251736111111086  24 0  C 23.921875 0.490885416666668  23.7734375 1.05099826388888  23.5546875 1.68033854166667  C 23.0859375 1.80620659722222  22.29296875 1.98556857638888  21.17578125 2.21842447916667  C 20.05859375 2.45128038194444  19.2109375 2.662109375  18.6328125 2.85091145833333  C 18.5078125 3.09006076388888  18.3984375 3.35753038194444  18.3046875 3.6533203125  C 18.2109375 3.94911024305555  18.140625 4.20084635416667  18.09375 4.40852864583333  C 18.046875 4.6162109375  17.98828125 4.90256076388888  17.91796875 5.267578125  C 17.84765625 5.63259548611111  17.796875 5.89691840277778  17.765625 6.060546875  C 17.34375 7.92339409722222  16.66015625 10.5634765625  15.71484375 13.9807942708333  C 14.76953125 17.3981119791667  14.1640625 19.6354166666667  13.8984375 20.6927083333333  C 13.8671875 20.8059895833333  13.765625 21.1710069444444  13.59375 21.7877604166667  C 13.421875 22.4045138888889  13.265625 22.9709201388889  13.125 23.4869791666667  C 12.984375 24.0030381944444  12.859375 24.5285373263889  12.75 25.0634765625  C 12.640625 25.5984157986111  12.59375 25.9602864583333  12.609375 26.1490885416667  L 12.6328125 26.4889322916667  C 12.8984375 26.5392795138889  14.34375 26.734375  16.96875 27.07421875  C 16.921875 27.6280381944444  16.796875 28.2510850694444  16.59375 28.943359375  C 16.421875 28.943359375  16.16796875 28.9527994791667  15.83203125 28.9716796875  C 15.49609375 28.9905598958333  15.2421875 29  15.0703125 29  C 14.6171875 29  13.9375 28.9370659722222  13.03125 28.8111979166667  C 12.125 28.6853298611111  11.453125 28.6223958333333  11.015625 28.6223958333333  C 8.859375 28.5972222222222  7.25 28.5846354166667  6.1875 28.5846354166667  C 5.390625 28.5846354166667  4.2734375 28.6412760416667  2.8359375 28.7545572916667  Z " fill-rule="nonzero" fill="#000000" stroke="none" transform="matrix(1 0 0 1 143 134 )" />
  </g>
</svg>