<?xml version="1.0" encoding="utf-8"?>
<svg version="1.1" xmlns:xlink="http://www.w3.org/1999/xlink" width="25px" height="28px" xmlns="http://www.w3.org/2000/svg">
  <g transform="matrix(1 0 0 1 -177 -135 )">
    <path d="M 3.173828125 2.44270833333333  C 2.90256076388889 2.00520833333333  2.10503472222222 1.76822916666667  0.78125 1.73177083333333  C 0.379774305555556 1.70746527777778  0.135633680555556 1.68315972222222  0.048828125 1.65885416666667  L 0 0.0546875  C 0.141059027777778 0.0425347222222219  0.358072916666667 0.0364583333333344  0.651041666666667 0.0364583333333344  C 1.30208333333333 0.0364583333333344  1.90972222222222 0.0607638888888875  2.47395833333333 0.109375  C 3.90625 0.194444444444441  4.80685763888889 0.236979166666666  5.17578125 0.236979166666666  C 6.10894097222222 0.236979166666666  7.02039930555556 0.21875  7.91015625 0.182291666666666  C 9.16883680555556 0.133680555555553  9.9609375 0.103298611111109  10.2864583333333 0.0911458333333344  C 10.8940972222222 0.0911458333333344  11.3606770833333 0.0789930555555531  11.6861979166667 0.0546875  L 11.669921875 0.309895833333334  L 11.7024739583333 1.4765625  L 11.7024739583333 1.640625  C 11.0514322916667 1.75  10.3786892361111 1.8046875  9.68424479166667 1.8046875  C 9.033203125 1.8046875  8.60460069444445 1.95659722222222  8.3984375 2.26041666666667  C 8.25737847222222 2.43055555555555  8.18684895833333 3.23263888888889  8.18684895833333 4.66666666666667  C 8.18684895833333 4.82465277777778  8.18956163194444 5.02213541666667  8.19498697916667 5.25911458333333  C 8.20041232638889 5.49609375  8.203125 5.65104166666667  8.203125 5.72395833333333  L 8.21940104166667 9.8984375  L 8.447265625 15.0026041666667  C 8.51236979166667 16.5095486111111  8.7890625 17.7369791666667  9.27734375 18.6848958333333  C 9.65711805555556 19.4019097222222  10.1779513888889 19.9609375  10.83984375 20.3619791666667  C 11.7947048611111 20.9331597222222  12.7549913194444 21.21875  13.720703125 21.21875  C 14.8491753472222 21.21875  15.8854166666667 21.0486111111111  16.8294270833333 20.7083333333333  C 17.4370659722222 20.4895833333333  17.9741753472222 20.1796875  18.4407552083333 19.7786458333333  C 18.9615885416667 19.3411458333333  19.3142361111111 18.9522569444444  19.4986979166667 18.6119791666667  C 19.8893229166667 17.9314236111111  20.1768663194444 17.2387152777778  20.361328125 16.5338541666667  C 20.5891927083333 15.6467013888889  20.703125 14.2552083333333  20.703125 12.359375  C 20.703125 11.3993055555556  20.6841362847222 10.6215277777778  20.6461588541667 10.0260416666667  C 20.6081814236111 9.43055555555555  20.5485026041667 8.68619791666667  20.4671223958333 7.79296875  C 20.3857421875 6.89973958333333  20.3125 5.93055555555555  20.2473958333333 4.88541666666667  L 20.1822916666667 3.80989583333333  C 20.1280381944444 2.99565972222222  19.9978298611111 2.4609375  19.7916666666667 2.20572916666667  C 19.4227430555556 1.78038194444444  19.0049913194444 1.57378472222222  18.5384114583333 1.5859375  L 16.9108072916667 1.62239583333333  L 16.6829427083333 1.56770833333333  L 16.7154947916667 0  L 18.0826822916667 0  L 21.4192708333333 0.182291666666666  C 22.2439236111111 0.21875  23.3072916666667 0.157986111111109  24.609375 0  L 24.90234375 0.0364583333333344  C 24.9674479166667 0.498263888888888  25 0.808159722222222  25 0.966145833333334  C 25 1.05121527777778  24.9782986111111 1.23958333333333  24.9348958333333 1.53125  C 24.4466145833333 1.67708333333333  23.9908854166667 1.75607638888889  23.5677083333333 1.76822916666667  C 22.7756076388889 1.90190972222222  22.3470052083333 2.00520833333333  22.2819010416667 2.078125  C 22.119140625 2.26041666666667  22.0377604166667 2.50954861111111  22.0377604166667 2.82552083333333  C 22.0377604166667 2.91059027777778  22.0458984375 3.07465277777778  22.0621744791667 3.31770833333333  C 22.0784505208333 3.56076388888889  22.0865885416667 3.74913194444444  22.0865885416667 3.8828125  C 22.1733940972222 4.11371527777778  22.2927517361111 6.51996527777778  22.4446614583333 11.1015625  C 22.509765625 13.4713541666667  22.4283854166667 15.3185763888889  22.2005208333333 16.6432291666667  C 22.0377604166667 17.5668402777778  21.8153211805556 18.3081597222222  21.533203125 18.8671875  C 21.1208767361111 19.6571180555556  20.5132378472222 20.4045138888889  19.7102864583333 21.109375  C 18.896484375 21.8020833333333  17.9090711805556 22.3428819444444  16.748046875 22.7317708333333  C 15.5653211805556 23.1328125  14.1818576388889 23.3333333333333  12.59765625 23.3333333333333  C 10.7855902777778 23.3333333333333  9.24479166666667 23.0538194444444  7.97526041666667 22.4947916666667  C 6.68402777777778 21.9236111111111  5.712890625 21.1822916666667  5.06184895833333 20.2708333333333  C 4.39995659722222 19.3472222222222  3.94965277777778 18.1623263888889  3.7109375 16.7161458333333  C 3.53732638888889 15.7439236111111  3.45052083333333 14.3038194444444  3.45052083333333 12.3958333333333  L 3.45052083333333 6.32552083333333  C 3.45052083333333 4.04079861111111  3.35828993055556 2.74652777777778  3.173828125 2.44270833333333  Z M 24.853515625 27.8359375  C 24.951171875 27.7265625  25 27.5868055555556  25 27.4166666666667  L 25 26.25  C 25 26.0798611111111  24.951171875 25.9401041666667  24.853515625 25.8307291666667  C 24.755859375 25.7213541666667  24.6310763888889 25.6666666666667  24.4791666666667 25.6666666666667  L 0.520833333333333 25.6666666666667  C 0.368923611111111 25.6666666666667  0.244140625 25.7213541666667  0.146484375 25.8307291666667  C 0.048828125 25.9401041666667  0 26.0798611111111  0 26.25  L 0 27.4166666666667  C 0 27.5868055555556  0.048828125 27.7265625  0.146484375 27.8359375  C 0.244140625 27.9453125  0.368923611111111 28  0.520833333333333 28  L 24.4791666666667 28  C 24.6310763888889 28  24.755859375 27.9453125  24.853515625 27.8359375  Z " fill-rule="nonzero" fill="#000000" stroke="none" transform="matrix(1 0 0 1 177 135 )" />
  </g>
</svg>