<?xml version="1.0" encoding="utf-8"?>
<svg version="1.1" xmlns:xlink="http://www.w3.org/1999/xlink" width="34px" height="29px" xmlns="http://www.w3.org/2000/svg">
  <g transform="matrix(1 0 0 1 -211 -134 )">
    <path d="M 10.3416666666667 5.890625  C 11.0027777777778 6.59548611111111  11.3333333333333 7.45138888888888  11.3333333333333 8.45833333333333  C 11.3333333333333 9.46527777777778  11.0027777777778 10.3211805555556  10.3416666666667 11.0260416666667  C 9.68055555555556 11.7309027777778  8.87777777777778 12.0833333333333  7.93333333333333 12.0833333333333  C 6.98888888888889 12.0833333333333  6.18611111111111 11.7309027777778  5.525 11.0260416666667  C 4.86388888888889 10.3211805555556  4.53333333333333 9.46527777777778  4.53333333333333 8.45833333333333  C 4.53333333333333 7.45138888888888  4.86388888888889 6.59548611111111  5.525 5.890625  C 6.18611111111111 5.18576388888888  6.98888888888889 4.83333333333333  7.93333333333333 4.83333333333333  C 8.87777777777778 4.83333333333333  9.68055555555556 5.18576388888888  10.3416666666667 5.890625  Z M 22.1 7.85416666666667  L 29.4666666666667 15.7083333333333  L 29.4666666666667 24  L 4.53333333333333 24  L 4.53333333333333 20.5416666666667  L 10.2 14.5  L 13.0333333333333 17.5208333333333  L 22.1 7.85416666666667  Z M 31.5651041666667 2.59602864583333  C 31.4529513888889 2.47645399305555  31.3201388888889 2.41666666666667  31.1666666666667 2.41666666666667  L 2.83333333333333 2.41666666666667  C 2.67986111111111 2.41666666666667  2.54704861111111 2.47645399305555  2.43489583333333 2.59602864583333  C 2.32274305555556 2.71560329861111  2.26666666666667 2.85720486111111  2.26666666666667 3.02083333333333  L 2.26666666666667 25.9791666666667  C 2.26666666666667 26.1427951388889  2.32274305555556 26.2843967013889  2.43489583333333 26.4039713541667  C 2.54704861111111 26.5235460069444  2.67986111111111 26.5833333333333  2.83333333333333 26.5833333333333  L 31.1666666666667 26.5833333333333  C 31.3201388888889 26.5833333333333  31.4529513888889 26.5235460069444  31.5651041666667 26.4039713541667  C 31.6772569444444 26.2843967013889  31.7333333333333 26.1427951388889  31.7333333333333 25.9791666666667  L 31.7333333333333 3.02083333333333  C 31.7333333333333 2.85720486111111  31.6772569444444 2.71560329861111  31.5651041666667 2.59602864583333  Z M 33.1677083333333 0.887369791666668  C 33.7225694444444 1.47894965277778  34 2.19010416666667  34 3.02083333333333  L 34 25.9791666666667  C 34 26.8098958333333  33.7225694444444 27.5210503472222  33.1677083333333 28.1126302083333  C 32.6128472222222 28.7042100694444  31.9458333333333 29  31.1666666666667 29  L 2.83333333333333 29  C 2.05416666666667 29  1.38715277777778 28.7042100694444  0.832291666666667 28.1126302083333  C 0.277430555555556 27.5210503472222  0 26.8098958333333  0 25.9791666666667  L 0 3.02083333333333  C 0 2.19010416666667  0.277430555555556 1.47894965277778  0.832291666666667 0.887369791666668  C 1.38715277777778 0.295789930555553  2.05416666666667 0  2.83333333333333 0  L 31.1666666666667 0  C 31.9458333333333 0  32.6128472222222 0.295789930555553  33.1677083333333 0.887369791666668  Z " fill-rule="nonzero" fill="#000000" stroke="none" transform="matrix(1 0 0 1 211 134 )" />
  </g>
</svg>