<?xml version="1.0" encoding="utf-8"?>
<svg version="1.1" xmlns:xlink="http://www.w3.org/1999/xlink" width="40px" height="50px" xmlns="http://www.w3.org/2000/svg">
  <defs>
    <filter x="314px" y="-4px" width="40px" height="50px" filterUnits="userSpaceOnUse" id="filter1">
      <feOffset dx="1" dy="1" in="SourceAlpha" result="shadowOffsetInner" />
      <feGaussianBlur stdDeviation="2.5" in="shadowOffsetInner" result="shadowGaussian" />
      <feComposite in2="shadowGaussian" operator="atop" in="SourceAlpha" result="shadowComposite" />
      <feColorMatrix type="matrix" values="0 0 0 0 0  0 0 0 0 0  0 0 0 0 0  0 0 0 0.698039215686274 0  " in="shadowComposite" />
    </filter>
    <g id="widget2">
      <path d="M 333 39.0369284683536  C 327.2 29.4073405959099  318.5 23.6295878724437  318.5 14  C 318.5 8.98571428571429  321.4 0.499999999999998  333 0.499999999999998  C 344.6 0.499999999999998  347.5 8.98571428571429  347.5 14  C 347.5 23.6295878724437  338.8 29.4073405959099  333 39.0369284683536  Z " fill-rule="nonzero" fill="#009dd9" stroke="none" />
      <path d="M 333 40  C 327 30  318 24  318 14  C 318 8.8  321 0  333 0  C 345 0  348 8.8  348 14  C 348 24  339 30  333 40  Z M 333 38.0738569367072  C 338.6 28.8146811918198  347 23.2591757448874  347 14  C 347 9.17142857142857  344.2 1  333 1  C 321.8 1  319 9.17142857142857  319 14  C 319 23.2591757448874  327.4 28.8146811918198  333 38.0738569367072  Z " fill-rule="nonzero" fill="#ffffff" stroke="none" />
    </g>
  </defs>
  <g transform="matrix(1 0 0 1 -314 4 )">
    <use xlink:href="#widget2" filter="url(#filter1)" />
    <use xlink:href="#widget2" />
  </g>
</svg>